<?xml version="1.0" encoding="utf-8" standalone="no"?>
<!DOCTYPE svg PUBLIC "-//W3C//DTD SVG 1.1//EN"
  "http://www.w3.org/Graphics/SVG/1.1/DTD/svg11.dtd">
<svg xmlns:xlink="http://www.w3.org/1999/xlink" width="547.2pt" height="244.8pt" viewBox="0 0 547.2 244.8" xmlns="http://www.w3.org/2000/svg" version="1.1">
 <metadata>
  <rdf:RDF xmlns:dc="http://purl.org/dc/elements/1.1/" xmlns:cc="http://creativecommons.org/ns#" xmlns:rdf="http://www.w3.org/1999/02/22-rdf-syntax-ns#">
   <cc:Work>
    <dc:type rdf:resource="http://purl.org/dc/dcmitype/StillImage"/>
    <dc:date>2026-10-02T00:43:52.021722</dc:date>
    <dc:format>image/svg+xml</dc:format>
    <dc:creator>
     <cc:Agent>
      <dc:title>Matplotlib v3.10.8, https://matplotlib.org/</dc:title>
     </cc:Agent>
    </dc:creator>
   </cc:Work>
  </rdf:RDF>
 </metadata>
 <defs>
  <style type="text/css">*{stroke-linejoin: round; stroke-linecap: butt}</style>
 </defs>
 <g id="figure_1">
  <g id="patch_1">
   <path d="M 0 244.8 
L 547.2 244.8 
L 547.2 0 
L 0 0 
z
" style="fill: #ffffff"/>
  </g>
  <g id="axes_1">
   <g id="patch_2">
    <path d="M 98.511959 215.037572 
L 208.67221 215.037572 
L 208.67221 15.551959 
L 98.511959 15.551959 
z
" style="fill: #ffffff"/>
   </g>
   <g id="patch_3">
    <path d="M 121.355029 205.970045 
L 121.355029 205.970045 
L 121.355029 200.969086 
L 121.355029 200.969086 
z
" clip-path="url(#p6c1ed21dde)" style="fill: #0072b2; stroke: #000000; stroke-width: 0.4; stroke-linejoin: miter"/>
   </g>
   <g id="patch_4">
    <path d="M 121.355029 192.809627 
L 121.355045 192.809627 
L 121.355045 187.808668 
L 121.355029 187.808668 
z
" clip-path="url(#p6c1ed21dde)" style="fill: #0072b2; stroke: #000000; stroke-width: 0.4; stroke-linejoin: miter"/>
   </g>
   <g id="patch_5">
    <path d="M 121.355029 179.649209 
L 121.355088 179.649209 
L 121.355088 174.64825 
L 121.355029 174.64825 
z
" clip-path="url(#p6c1ed21dde)" style="fill: #0072b2; stroke: #000000; stroke-width: 0.4; stroke-linejoin: miter"/>
   </g>
   <g id="patch_6">
    <path d="M 121.355029 166.488791 
L 121.355321 166.488791 
L 121.355321 161.487832 
L 121.355029 161.487832 
z
" clip-path="url(#p6c1ed21dde)" style="fill: #0072b2; stroke: #000000; stroke-width: 0.4; stroke-linejoin: miter"/>
   </g>
   <g id="patch_7">
    <path d="M 121.355029 153.328373 
L 121.355934 153.328373 
L 121.355934 148.327414 
L 121.355029 148.327414 
z
" clip-path="url(#p6c1ed21dde)" style="fill: #0072b2; stroke: #000000; stroke-width: 0.4; stroke-linejoin: miter"/>
   </g>
   <g id="patch_8">
    <path d="M 121.355029 140.167955 
L 121.398349 140.167955 
L 121.398349 135.166997 
L 121.355029 135.166997 
z
" clip-path="url(#p6c1ed21dde)" style="fill: #0072b2; stroke: #000000; stroke-width: 0.4; stroke-linejoin: miter"/>
   </g>
   <g id="patch_9">
    <path d="M 121.355029 127.007538 
L 121.640871 127.007538 
L 121.640871 122.006579 
L 121.355029 122.006579 
z
" clip-path="url(#p6c1ed21dde)" style="fill: #0072b2; stroke: #000000; stroke-width: 0.4; stroke-linejoin: miter"/>
   </g>
   <g id="patch_10">
    <path d="M 121.355029 113.84712 
L 127.149606 113.84712 
L 127.149606 108.846161 
L 121.355029 108.846161 
z
" clip-path="url(#p6c1ed21dde)" style="fill: #0072b2; stroke: #000000; stroke-width: 0.4; stroke-linejoin: miter"/>
   </g>
   <g id="patch_11">
    <path d="M 121.355029 100.686702 
L 134.354683 100.686702 
L 134.354683 95.685743 
L 121.355029 95.685743 
z
" clip-path="url(#p6c1ed21dde)" style="fill: #0072b2; stroke: #000000; stroke-width: 0.4; stroke-linejoin: miter"/>
   </g>
   <g id="patch_12">
    <path d="M 121.355029 87.526284 
L 135.651531 87.526284 
L 135.651531 82.525325 
L 121.355029 82.525325 
z
" clip-path="url(#p6c1ed21dde)" style="fill: #0072b2; stroke: #000000; stroke-width: 0.4; stroke-linejoin: miter"/>
   </g>
   <g id="patch_13">
    <path d="M 121.355029 74.365866 
L 136.155271 74.365866 
L 136.155271 69.364907 
L 121.355029 69.364907 
z
" clip-path="url(#p6c1ed21dde)" style="fill: #0072b2; stroke: #000000; stroke-width: 0.4; stroke-linejoin: miter"/>
   </g>
   <g id="patch_14">
    <path d="M 121.355029 61.205448 
L 146.464906 61.205448 
L 146.464906 56.204489 
L 121.355029 56.204489 
z
" clip-path="url(#p6c1ed21dde)" style="fill: #0072b2; stroke: #000000; stroke-width: 0.4; stroke-linejoin: miter"/>
   </g>
   <g id="patch_15">
    <path d="M 121.355029 48.04503 
L 148.285261 48.04503 
L 148.285261 43.044072 
L 121.355029 43.044072 
z
" clip-path="url(#p6c1ed21dde)" style="fill: #0072b2; stroke: #000000; stroke-width: 0.4; stroke-linejoin: miter"/>
   </g>
   <g id="patch_16">
    <path d="M 121.355029 34.884613 
L 175.800606 34.884613 
L 175.800606 29.883654 
L 121.355029 29.883654 
z
" clip-path="url(#p6c1ed21dde)" style="fill: #0072b2; stroke: #000000; stroke-width: 0.4; stroke-linejoin: miter"/>
   </g>
   <g id="patch_17">
    <path d="M 121.355029 200.705877 
L 121.355029 200.705877 
L 121.355029 195.704919 
L 121.355029 195.704919 
z
" clip-path="url(#p6c1ed21dde)" style="fill: #e69f00; stroke: #000000; stroke-width: 0.4; stroke-linejoin: miter"/>
   </g>
   <g id="patch_18">
    <path d="M 121.355029 187.54546 
L 121.354469 187.54546 
L 121.354469 182.544501 
L 121.355029 182.544501 
z
" clip-path="url(#p6c1ed21dde)" style="fill: #e69f00; stroke: #000000; stroke-width: 0.4; stroke-linejoin: miter"/>
   </g>
   <g id="patch_19">
    <path d="M 121.355029 174.385042 
L 121.354415 174.385042 
L 121.354415 169.384083 
L 121.355029 169.384083 
z
" clip-path="url(#p6c1ed21dde)" style="fill: #e69f00; stroke: #000000; stroke-width: 0.4; stroke-linejoin: miter"/>
   </g>
   <g id="patch_20">
    <path d="M 121.355029 161.224624 
L 121.353173 161.224624 
L 121.353173 156.223665 
L 121.355029 156.223665 
z
" clip-path="url(#p6c1ed21dde)" style="fill: #e69f00; stroke: #000000; stroke-width: 0.4; stroke-linejoin: miter"/>
   </g>
   <g id="patch_21">
    <path d="M 121.355029 148.064206 
L 121.363569 148.064206 
L 121.363569 143.063247 
L 121.355029 143.063247 
z
" clip-path="url(#p6c1ed21dde)" style="fill: #e69f00; stroke: #000000; stroke-width: 0.4; stroke-linejoin: miter"/>
   </g>
   <g id="patch_22">
    <path d="M 121.355029 134.903788 
L 121.391788 134.903788 
L 121.391788 129.902829 
L 121.355029 129.902829 
z
" clip-path="url(#p6c1ed21dde)" style="fill: #e69f00; stroke: #000000; stroke-width: 0.4; stroke-linejoin: miter"/>
   </g>
   <g id="patch_23">
    <path d="M 121.355029 121.74337 
L 121.346134 121.74337 
L 121.346134 116.742412 
L 121.355029 116.742412 
z
" clip-path="url(#p6c1ed21dde)" style="fill: #e69f00; stroke: #000000; stroke-width: 0.4; stroke-linejoin: miter"/>
   </g>
   <g id="patch_24">
    <path d="M 121.355029 108.582953 
L 123.606307 108.582953 
L 123.606307 103.581994 
L 121.355029 103.581994 
z
" clip-path="url(#p6c1ed21dde)" style="fill: #e69f00; stroke: #000000; stroke-width: 0.4; stroke-linejoin: miter"/>
   </g>
   <g id="patch_25">
    <path d="M 121.355029 95.422535 
L 121.00223 95.422535 
L 121.00223 90.421576 
L 121.355029 90.421576 
z
" clip-path="url(#p6c1ed21dde)" style="fill: #e69f00; stroke: #000000; stroke-width: 0.4; stroke-linejoin: miter"/>
   </g>
   <g id="patch_26">
    <path d="M 121.355029 82.262117 
L 123.586531 82.262117 
L 123.586531 77.261158 
L 121.355029 77.261158 
z
" clip-path="url(#p6c1ed21dde)" style="fill: #e69f00; stroke: #000000; stroke-width: 0.4; stroke-linejoin: miter"/>
   </g>
   <g id="patch_27">
    <path d="M 121.355029 69.101699 
L 120.182874 69.101699 
L 120.182874 64.10074 
L 121.355029 64.10074 
z
" clip-path="url(#p6c1ed21dde)" style="fill: #e69f00; stroke: #000000; stroke-width: 0.4; stroke-linejoin: miter"/>
   </g>
   <g id="patch_28">
    <path d="M 121.355029 55.941281 
L 123.934614 55.941281 
L 123.934614 50.940322 
L 121.355029 50.940322 
z
" clip-path="url(#p6c1ed21dde)" style="fill: #e69f00; stroke: #000000; stroke-width: 0.4; stroke-linejoin: miter"/>
   </g>
   <g id="patch_29">
    <path d="M 121.355029 42.780863 
L 124.615242 42.780863 
L 124.615242 37.779904 
L 121.355029 37.779904 
z
" clip-path="url(#p6c1ed21dde)" style="fill: #e69f00; stroke: #000000; stroke-width: 0.4; stroke-linejoin: miter"/>
   </g>
   <g id="patch_30">
    <path d="M 121.355029 29.620445 
L 126.412995 29.620445 
L 126.412995 24.619487 
L 121.355029 24.619487 
z
" clip-path="url(#p6c1ed21dde)" style="fill: #e69f00; stroke: #000000; stroke-width: 0.4; stroke-linejoin: miter"/>
   </g>
   <g id="matplotlib.axis_1">
    <g id="xtick_1">
     <g id="line2d_1">
      <defs>
       <path id="m136801912d" d="M 0 0 
L 0 3.5 
" style="stroke: #000000; stroke-width: 0.8"/>
      </defs>
      <g>
       <use xlink:href="#m136801912d" x="121.355029" y="215.037572" style="stroke: #000000; stroke-width: 0.8"/>
      </g>
     </g>
     <g id="text_1">
      <text style="font-size: 8px; font-family: 'Arial', 'DejaVu Sans', sans-serif; text-anchor: middle" x="121.355029" y="227.763822" transform="rotate(-0 121.355029 227.763822)">0.0</text>
     </g>
    </g>
    <g id="xtick_2">
     <g id="line2d_2">
      <g>
       <use xlink:href="#m136801912d" x="153.784317" y="215.037572" style="stroke: #000000; stroke-width: 0.8"/>
      </g>
     </g>
     <g id="text_2">
      <text style="font-size: 8px; font-family: 'Arial', 'DejaVu Sans', sans-serif; text-anchor: middle" x="153.784317" y="227.763822" transform="rotate(-0 153.784317 227.763822)">0.5</text>
     </g>
    </g>
    <g id="xtick_3">
     <g id="line2d_3">
      <g>
       <use xlink:href="#m136801912d" x="186.213605" y="215.037572" style="stroke: #000000; stroke-width: 0.8"/>
      </g>
     </g>
     <g id="text_3">
      <text style="font-size: 8px; font-family: 'Arial', 'DejaVu Sans', sans-serif; text-anchor: middle" x="186.213605" y="227.763822" transform="rotate(-0 186.213605 227.763822)">1.0</text>
     </g>
    </g>
    <g id="text_4">
     <text style="font-size: 9px; font-family: 'Arial', 'DejaVu Sans', sans-serif; text-anchor: middle" x="153.592084" y="239.795854" transform="rotate(-0 153.592084 239.795854)">Sobol index</text>
    </g>
   </g>
   <g id="matplotlib.axis_2">
    <g id="ytick_1">
     <g id="line2d_4">
      <defs>
       <path id="md9b3645eca" d="M 0 0 
L -3.5 0 
" style="stroke: #000000; stroke-width: 0.8"/>
      </defs>
      <g>
       <use xlink:href="#md9b3645eca" x="98.511959" y="200.837482" style="stroke: #000000; stroke-width: 0.8"/>
      </g>
     </g>
     <g id="text_5">
      <text style="font-size: 6.5px; font-family: 'Arial', 'DejaVu Sans', sans-serif; text-anchor: end" x="91.511959" y="203.163771" transform="rotate(-0 91.511959 203.163771)">hydroxynorketamine clearance</text>
     </g>
    </g>
    <g id="ytick_2">
     <g id="line2d_5">
      <g>
       <use xlink:href="#md9b3645eca" x="98.511959" y="187.677064" style="stroke: #000000; stroke-width: 0.8"/>
      </g>
     </g>
     <g id="text_6">
      <text style="font-size: 6.5px; font-family: 'Arial', 'DejaVu Sans', sans-serif; text-anchor: end" x="91.511959" y="190.042962" transform="rotate(-0 91.511959 190.042962)">protective coefficient</text>
     </g>
    </g>
    <g id="ytick_3">
     <g id="line2d_6">
      <g>
       <use xlink:href="#md9b3645eca" x="98.511959" y="174.516646" style="stroke: #000000; stroke-width: 0.8"/>
      </g>
     </g>
     <g id="text_7">
      <text style="font-size: 6.5px; font-family: 'Arial', 'DejaVu Sans', sans-serif; text-anchor: end" x="91.511959" y="176.882544" transform="rotate(-0 91.511959 176.882544)">SD threshold gain</text>
     </g>
    </g>
    <g id="ytick_4">
     <g id="line2d_7">
      <g>
       <use xlink:href="#md9b3645eca" x="98.511959" y="161.356228" style="stroke: #000000; stroke-width: 0.8"/>
      </g>
     </g>
     <g id="text_8">
      <text style="font-size: 6.5px; font-family: 'Arial', 'DejaVu Sans', sans-serif; text-anchor: end" x="91.511959" y="163.682517" transform="rotate(-0 91.511959 163.682517)">pyramidal association rate</text>
     </g>
    </g>
    <g id="ytick_5">
     <g id="line2d_8">
      <g>
       <use xlink:href="#md9b3645eca" x="98.511959" y="148.19581" style="stroke: #000000; stroke-width: 0.8"/>
      </g>
     </g>
     <g id="text_9">
      <text style="font-size: 6.5px; font-family: 'Arial', 'DejaVu Sans', sans-serif; text-anchor: end" x="91.511959" y="150.522099" transform="rotate(-0 91.511959 150.522099)">pyramidal dissociation rate</text>
     </g>
    </g>
    <g id="ytick_6">
     <g id="line2d_9">
      <g>
       <use xlink:href="#md9b3645eca" x="98.511959" y="135.035392" style="stroke: #000000; stroke-width: 0.8"/>
      </g>
     </g>
     <g id="text_10">
      <text style="font-size: 6.5px; font-family: 'Arial', 'DejaVu Sans', sans-serif; text-anchor: end" x="91.511959" y="137.361681" transform="rotate(-0 91.511959 137.361681)">excitotoxic coefficient</text>
     </g>
    </g>
    <g id="ytick_7">
     <g id="line2d_10">
      <g>
       <use xlink:href="#md9b3645eca" x="98.511959" y="121.874975" style="stroke: #000000; stroke-width: 0.8"/>
      </g>
     </g>
     <g id="text_11">
      <text style="font-size: 6.5px; font-family: 'Arial', 'DejaVu Sans', sans-serif; text-anchor: end" x="91.511959" y="124.240873" transform="rotate(-0 91.511959 124.240873)">intercompartmental flow</text>
     </g>
    </g>
    <g id="ytick_8">
     <g id="line2d_11">
      <g>
       <use xlink:href="#md9b3645eca" x="98.511959" y="108.714557" style="stroke: #000000; stroke-width: 0.8"/>
      </g>
     </g>
     <g id="text_12">
      <text style="font-size: 6.5px; font-family: 'Arial', 'DejaVu Sans', sans-serif; text-anchor: end" x="91.511959" y="111.040846" transform="rotate(-0 91.511959 111.040846)">interneuron association rate</text>
     </g>
    </g>
    <g id="ytick_9">
     <g id="line2d_12">
      <g>
       <use xlink:href="#md9b3645eca" x="98.511959" y="95.554139" style="stroke: #000000; stroke-width: 0.8"/>
      </g>
     </g>
     <g id="text_13">
      <text style="font-size: 6.5px; font-family: 'Arial', 'DejaVu Sans', sans-serif; text-anchor: end" x="91.511959" y="97.880428" transform="rotate(-0 91.511959 97.880428)">NRHypo injury weight</text>
     </g>
    </g>
    <g id="ytick_10">
     <g id="line2d_13">
      <g>
       <use xlink:href="#md9b3645eca" x="98.511959" y="82.393721" style="stroke: #000000; stroke-width: 0.8"/>
      </g>
     </g>
     <g id="text_14">
      <text style="font-size: 6.5px; font-family: 'Arial', 'DejaVu Sans', sans-serif; text-anchor: end" x="91.511959" y="84.72001" transform="rotate(-0 91.511959 84.72001)">blood-brain efflux clearance</text>
     </g>
    </g>
    <g id="ytick_11">
     <g id="line2d_14">
      <g>
       <use xlink:href="#md9b3645eca" x="98.511959" y="69.233303" style="stroke: #000000; stroke-width: 0.8"/>
      </g>
     </g>
     <g id="text_15">
      <text style="font-size: 6.5px; font-family: 'Arial', 'DejaVu Sans', sans-serif; text-anchor: end" x="91.511959" y="71.559592" transform="rotate(-0 91.511959 71.559592)">NRHypo gain</text>
     </g>
    </g>
    <g id="ytick_12">
     <g id="line2d_15">
      <g>
       <use xlink:href="#md9b3645eca" x="98.511959" y="56.072885" style="stroke: #000000; stroke-width: 0.8"/>
      </g>
     </g>
     <g id="text_16">
      <text style="font-size: 6.5px; font-family: 'Arial', 'DejaVu Sans', sans-serif; text-anchor: end" x="91.511959" y="58.399174" transform="rotate(-0 91.511959 58.399174)">blood-brain influx clearance</text>
     </g>
    </g>
    <g id="ytick_13">
     <g id="line2d_16">
      <g>
       <use xlink:href="#md9b3645eca" x="98.511959" y="42.912467" style="stroke: #000000; stroke-width: 0.8"/>
      </g>
     </g>
     <g id="text_17">
      <text style="font-size: 6.5px; font-family: 'Arial', 'DejaVu Sans', sans-serif; text-anchor: end" x="91.511959" y="45.238757" transform="rotate(-0 91.511959 45.238757)">interneuron toxic threshold</text>
     </g>
    </g>
    <g id="ytick_14">
     <g id="line2d_17">
      <g>
       <use xlink:href="#md9b3645eca" x="98.511959" y="29.75205" style="stroke: #000000; stroke-width: 0.8"/>
      </g>
     </g>
     <g id="text_18">
      <text style="font-size: 6.5px; font-family: 'Arial', 'DejaVu Sans', sans-serif; text-anchor: end" x="91.511959" y="32.078339" transform="rotate(-0 91.511959 32.078339)">interneuron dissociation rate</text>
     </g>
    </g>
   </g>
   <g id="LineCollection_1">
    <path d="M 121.355029 203.469565 
L 121.355029 203.469565 
" clip-path="url(#p6c1ed21dde)" style="fill: none; stroke: #000000; stroke-width: 0.6"/>
    <path d="M 121.355022 190.309147 
L 121.355068 190.309147 
" clip-path="url(#p6c1ed21dde)" style="fill: none; stroke: #000000; stroke-width: 0.6"/>
    <path d="M 121.354995 177.14873 
L 121.355181 177.14873 
" clip-path="url(#p6c1ed21dde)" style="fill: none; stroke: #000000; stroke-width: 0.6"/>
    <path d="M 121.354871 163.988312 
L 121.355771 163.988312 
" clip-path="url(#p6c1ed21dde)" style="fill: none; stroke: #000000; stroke-width: 0.6"/>
    <path d="M 121.354459 150.827894 
L 121.357408 150.827894 
" clip-path="url(#p6c1ed21dde)" style="fill: none; stroke: #000000; stroke-width: 0.6"/>
    <path d="M 121.332494 137.667476 
L 121.464204 137.667476 
" clip-path="url(#p6c1ed21dde)" style="fill: none; stroke: #000000; stroke-width: 0.6"/>
    <path d="M 121.43441 124.507058 
L 121.847332 124.507058 
" clip-path="url(#p6c1ed21dde)" style="fill: none; stroke: #000000; stroke-width: 0.6"/>
    <path d="M 117.156256 111.34664 
L 137.142956 111.34664 
" clip-path="url(#p6c1ed21dde)" style="fill: none; stroke: #000000; stroke-width: 0.6"/>
    <path d="M 116.335777 98.186222 
L 152.373588 98.186222 
" clip-path="url(#p6c1ed21dde)" style="fill: none; stroke: #000000; stroke-width: 0.6"/>
    <path d="M 119.427829 85.025805 
L 151.875234 85.025805 
" clip-path="url(#p6c1ed21dde)" style="fill: none; stroke: #000000; stroke-width: 0.6"/>
    <path d="M 127.440365 71.865387 
L 144.870178 71.865387 
" clip-path="url(#p6c1ed21dde)" style="fill: none; stroke: #000000; stroke-width: 0.6"/>
    <path d="M 103.519243 58.704969 
L 189.410568 58.704969 
" clip-path="url(#p6c1ed21dde)" style="fill: none; stroke: #000000; stroke-width: 0.6"/>
    <path d="M 129.851247 45.544551 
L 166.719276 45.544551 
" clip-path="url(#p6c1ed21dde)" style="fill: none; stroke: #000000; stroke-width: 0.6"/>
    <path d="M 147.936287 32.384133 
L 203.664926 32.384133 
" clip-path="url(#p6c1ed21dde)" style="fill: none; stroke: #000000; stroke-width: 0.6"/>
   </g>
   <g id="LineCollection_2">
    <path d="M 121.355029 198.205398 
L 121.355029 198.205398 
" clip-path="url(#p6c1ed21dde)" style="fill: none; stroke: #000000; stroke-width: 0.6"/>
    <path d="M 121.345892 185.04498 
L 121.363046 185.04498 
" clip-path="url(#p6c1ed21dde)" style="fill: none; stroke: #000000; stroke-width: 0.6"/>
    <path d="M 121.344331 171.884562 
L 121.364498 171.884562 
" clip-path="url(#p6c1ed21dde)" style="fill: none; stroke: #000000; stroke-width: 0.6"/>
    <path d="M 121.334325 158.724145 
L 121.37202 158.724145 
" clip-path="url(#p6c1ed21dde)" style="fill: none; stroke: #000000; stroke-width: 0.6"/>
    <path d="M 121.332714 145.563727 
L 121.394424 145.563727 
" clip-path="url(#p6c1ed21dde)" style="fill: none; stroke: #000000; stroke-width: 0.6"/>
    <path d="M 121.03663 132.403309 
L 121.746946 132.403309 
" clip-path="url(#p6c1ed21dde)" style="fill: none; stroke: #000000; stroke-width: 0.6"/>
    <path d="M 120.742543 119.242891 
L 121.949725 119.242891 
" clip-path="url(#p6c1ed21dde)" style="fill: none; stroke: #000000; stroke-width: 0.6"/>
    <path d="M 118.322886 106.082473 
L 128.889728 106.082473 
" clip-path="url(#p6c1ed21dde)" style="fill: none; stroke: #000000; stroke-width: 0.6"/>
    <path d="M 116.239775 92.922055 
L 125.764684 92.922055 
" clip-path="url(#p6c1ed21dde)" style="fill: none; stroke: #000000; stroke-width: 0.6"/>
    <path d="M 120.543041 79.761637 
L 126.63002 79.761637 
" clip-path="url(#p6c1ed21dde)" style="fill: none; stroke: #000000; stroke-width: 0.6"/>
    <path d="M 116.148633 66.60122 
L 124.217114 66.60122 
" clip-path="url(#p6c1ed21dde)" style="fill: none; stroke: #000000; stroke-width: 0.6"/>
    <path d="M 118.879746 53.440802 
L 128.989482 53.440802 
" clip-path="url(#p6c1ed21dde)" style="fill: none; stroke: #000000; stroke-width: 0.6"/>
    <path d="M 122.018053 40.280384 
L 127.212432 40.280384 
" clip-path="url(#p6c1ed21dde)" style="fill: none; stroke: #000000; stroke-width: 0.6"/>
    <path d="M 113.926104 27.119966 
L 138.899887 27.119966 
" clip-path="url(#p6c1ed21dde)" style="fill: none; stroke: #000000; stroke-width: 0.6"/>
   </g>
   <g id="patch_31">
    <path d="M 98.511959 215.037573 
L 98.511959 15.551959 
" style="fill: none; stroke: #000000; stroke-width: 0.8; stroke-linejoin: miter; stroke-linecap: square"/>
   </g>
   <g id="patch_32">
    <path d="M 208.67221 215.037573 
L 208.67221 15.551959 
" style="fill: none; stroke: #000000; stroke-width: 0.8; stroke-linejoin: miter; stroke-linecap: square"/>
   </g>
   <g id="patch_33">
    <path d="M 98.511959 215.037572 
L 208.67221 215.037572 
" style="fill: none; stroke: #000000; stroke-width: 0.8; stroke-linejoin: miter; stroke-linecap: square"/>
   </g>
   <g id="patch_34">
    <path d="M 98.511959 15.551959 
L 208.67221 15.551959 
" style="fill: none; stroke: #000000; stroke-width: 0.8; stroke-linejoin: miter; stroke-linecap: square"/>
   </g>
   <g id="text_19">
    <text style="font-size: 9px; font-family: 'Arial', 'DejaVu Sans', sans-serif; text-anchor: start" x="98.511959" y="9.551959" transform="rotate(-0 98.511959 9.551959)">A  Sensitivity indices</text>
   </g>
   <g id="legend_1">
    <g id="patch_35">
     <path d="M 151.257991 197.444604 
L 165.257991 197.444604 
L 165.257991 192.544604 
L 151.257991 192.544604 
z
" style="fill: #0072b2; stroke: #000000; stroke-width: 0.4; stroke-linejoin: miter"/>
    </g>
    <g id="text_20">
     <text style="font-size: 7px; font-family: 'Arial', 'DejaVu Sans', sans-serif; text-anchor: start" x="170.857991" y="197.444604" transform="rotate(-0 170.857991 197.444604)">total order</text>
    </g>
    <g id="patch_36">
     <path d="M 151.257991 207.346322 
L 165.257991 207.346322 
L 165.257991 202.446322 
L 151.257991 202.446322 
z
" style="fill: #e69f00; stroke: #000000; stroke-width: 0.4; stroke-linejoin: miter"/>
    </g>
    <g id="text_21">
     <text style="font-size: 7px; font-family: 'Arial', 'DejaVu Sans', sans-serif; text-anchor: start" x="170.857991" y="207.346322" transform="rotate(-0 170.857991 207.346322)">first order</text>
    </g>
   </g>
  </g>
  <g id="axes_2">
   <g id="patch_37">
    <path d="M 245.023471 215.037572 
L 355.183723 215.037572 
L 355.183723 15.551959 
L 245.023471 15.551959 
z
" style="fill: #ffffff"/>
   </g>
   <g id="matplotlib.axis_3">
    <g id="xtick_4">
     <g id="line2d_18">
      <path d="M 250.030756 215.037572 
L 250.030756 15.551959 
" clip-path="url(#p9d33147d2a)" style="fill: none; stroke: #dddddd; stroke-width: 0.5; stroke-linecap: square"/>
     </g>
     <g id="line2d_19">
      <g>
       <use xlink:href="#m136801912d" x="250.030756" y="215.037572" style="stroke: #000000; stroke-width: 0.8"/>
      </g>
     </g>
     <g id="text_22">
      <text style="font-size: 8px; font-family: 'Arial', 'DejaVu Sans', sans-serif; text-anchor: middle" x="250.030756" y="227.763822" transform="rotate(-0 250.030756 227.763822)">64</text>
     </g>
    </g>
    <g id="xtick_5">
     <g id="line2d_20">
      <path d="M 283.41265 215.037572 
L 283.41265 15.551959 
" clip-path="url(#p9d33147d2a)" style="fill: none; stroke: #dddddd; stroke-width: 0.5; stroke-linecap: square"/>
     </g>
     <g id="line2d_21">
      <g>
       <use xlink:href="#m136801912d" x="283.41265" y="215.037572" style="stroke: #000000; stroke-width: 0.8"/>
      </g>
     </g>
     <g id="text_23">
      <text style="font-size: 8px; font-family: 'Arial', 'DejaVu Sans', sans-serif; text-anchor: middle" x="283.41265" y="227.763822" transform="rotate(-0 283.41265 227.763822)">128</text>
     </g>
    </g>
    <g id="xtick_6">
     <g id="line2d_22">
      <path d="M 316.794544 215.037572 
L 316.794544 15.551959 
" clip-path="url(#p9d33147d2a)" style="fill: none; stroke: #dddddd; stroke-width: 0.5; stroke-linecap: square"/>
     </g>
     <g id="line2d_23">
      <g>
       <use xlink:href="#m136801912d" x="316.794544" y="215.037572" style="stroke: #000000; stroke-width: 0.8"/>
      </g>
     </g>
     <g id="text_24">
      <text style="font-size: 8px; font-family: 'Arial', 'DejaVu Sans', sans-serif; text-anchor: middle" x="316.794544" y="227.763822" transform="rotate(-0 316.794544 227.763822)">256</text>
     </g>
    </g>
    <g id="xtick_7">
     <g id="line2d_24">
      <path d="M 350.176439 215.037572 
L 350.176439 15.551959 
" clip-path="url(#p9d33147d2a)" style="fill: none; stroke: #dddddd; stroke-width: 0.5; stroke-linecap: square"/>
     </g>
     <g id="line2d_25">
      <g>
       <use xlink:href="#m136801912d" x="350.176439" y="215.037572" style="stroke: #000000; stroke-width: 0.8"/>
      </g>
     </g>
     <g id="text_25">
      <text style="font-size: 8px; font-family: 'Arial', 'DejaVu Sans', sans-serif; text-anchor: middle" x="350.176439" y="227.763822" transform="rotate(-0 350.176439 227.763822)">512</text>
     </g>
    </g>
    <g id="text_26">
     <text style="font-size: 9px; font-family: 'Arial', 'DejaVu Sans', sans-serif; text-anchor: middle" x="300.103597" y="239.795854" transform="rotate(-0 300.103597 239.795854)">Base sample size</text>
    </g>
   </g>
   <g id="matplotlib.axis_4">
    <g id="ytick_15">
     <g id="line2d_26">
      <path d="M 245.023471 213.747386 
L 355.183723 213.747386 
" clip-path="url(#p9d33147d2a)" style="fill: none; stroke: #dddddd; stroke-width: 0.5; stroke-linecap: square"/>
     </g>
     <g id="line2d_27">
      <g>
       <use xlink:href="#md9b3645eca" x="245.023471" y="213.747386" style="stroke: #000000; stroke-width: 0.8"/>
      </g>
     </g>
     <g id="text_27">
      <text style="font-size: 8px; font-family: 'Arial', 'DejaVu Sans', sans-serif; text-anchor: end" x="238.023471" y="216.610511" transform="rotate(-0 238.023471 216.610511)">0.0</text>
     </g>
    </g>
    <g id="ytick_16">
     <g id="line2d_28">
      <path d="M 245.023471 178.872824 
L 355.183723 178.872824 
" clip-path="url(#p9d33147d2a)" style="fill: none; stroke: #dddddd; stroke-width: 0.5; stroke-linecap: square"/>
     </g>
     <g id="line2d_29">
      <g>
       <use xlink:href="#md9b3645eca" x="245.023471" y="178.872824" style="stroke: #000000; stroke-width: 0.8"/>
      </g>
     </g>
     <g id="text_28">
      <text style="font-size: 8px; font-family: 'Arial', 'DejaVu Sans', sans-serif; text-anchor: end" x="238.023471" y="181.735949" transform="rotate(-0 238.023471 181.735949)">0.2</text>
     </g>
    </g>
    <g id="ytick_17">
     <g id="line2d_30">
      <path d="M 245.023471 143.998262 
L 355.183723 143.998262 
" clip-path="url(#p9d33147d2a)" style="fill: none; stroke: #dddddd; stroke-width: 0.5; stroke-linecap: square"/>
     </g>
     <g id="line2d_31">
      <g>
       <use xlink:href="#md9b3645eca" x="245.023471" y="143.998262" style="stroke: #000000; stroke-width: 0.8"/>
      </g>
     </g>
     <g id="text_29">
      <text style="font-size: 8px; font-family: 'Arial', 'DejaVu Sans', sans-serif; text-anchor: end" x="238.023471" y="146.861387" transform="rotate(-0 238.023471 146.861387)">0.4</text>
     </g>
    </g>
    <g id="ytick_18">
     <g id="line2d_32">
      <path d="M 245.023471 109.1237 
L 355.183723 109.1237 
" clip-path="url(#p9d33147d2a)" style="fill: none; stroke: #dddddd; stroke-width: 0.5; stroke-linecap: square"/>
     </g>
     <g id="line2d_33">
      <g>
       <use xlink:href="#md9b3645eca" x="245.023471" y="109.1237" style="stroke: #000000; stroke-width: 0.8"/>
      </g>
     </g>
     <g id="text_30">
      <text style="font-size: 8px; font-family: 'Arial', 'DejaVu Sans', sans-serif; text-anchor: end" x="238.023471" y="111.986825" transform="rotate(-0 238.023471 111.986825)">0.6</text>
     </g>
    </g>
    <g id="ytick_19">
     <g id="line2d_34">
      <path d="M 245.023471 74.249139 
L 355.183723 74.249139 
" clip-path="url(#p9d33147d2a)" style="fill: none; stroke: #dddddd; stroke-width: 0.5; stroke-linecap: square"/>
     </g>
     <g id="line2d_35">
      <g>
       <use xlink:href="#md9b3645eca" x="245.023471" y="74.249139" style="stroke: #000000; stroke-width: 0.8"/>
      </g>
     </g>
     <g id="text_31">
      <text style="font-size: 8px; font-family: 'Arial', 'DejaVu Sans', sans-serif; text-anchor: end" x="238.023471" y="77.112264" transform="rotate(-0 238.023471 77.112264)">0.8</text>
     </g>
    </g>
    <g id="ytick_20">
     <g id="line2d_36">
      <path d="M 245.023471 39.374577 
L 355.183723 39.374577 
" clip-path="url(#p9d33147d2a)" style="fill: none; stroke: #dddddd; stroke-width: 0.5; stroke-linecap: square"/>
     </g>
     <g id="line2d_37">
      <g>
       <use xlink:href="#md9b3645eca" x="245.023471" y="39.374577" style="stroke: #000000; stroke-width: 0.8"/>
      </g>
     </g>
     <g id="text_32">
      <text style="font-size: 8px; font-family: 'Arial', 'DejaVu Sans', sans-serif; text-anchor: end" x="238.023471" y="42.237702" transform="rotate(-0 238.023471 42.237702)">1.0</text>
     </g>
    </g>
    <g id="text_33">
     <text style="font-size: 9px; font-family: 'Arial', 'DejaVu Sans', sans-serif; text-anchor: middle" x="221.114721" y="115.294766" transform="rotate(-90 221.114721 115.294766)">Total-order index</text>
    </g>
   </g>
   <g id="line2d_38">
    <path d="M 250.030756 162.863994 
L 283.41265 142.446981 
L 316.794544 24.619487 
L 350.176439 125.992401 
" clip-path="url(#p9d33147d2a)" style="fill: none; stroke: #0072b2; stroke-width: 1.2; stroke-linecap: square"/>
    <defs>
     <path id="m7ca0386083" d="M 0 1.75 
C 0.464105 1.75 0.909265 1.565609 1.237437 1.237437 
C 1.565609 0.909265 1.75 0.464105 1.75 0 
C 1.75 -0.464105 1.565609 -0.909265 1.237437 -1.237437 
C 0.909265 -1.565609 0.464105 -1.75 0 -1.75 
C -0.464105 -1.75 -0.909265 -1.565609 -1.237437 -1.237437 
C -1.565609 -0.909265 -1.75 -0.464105 -1.75 0 
C -1.75 0.464105 -1.565609 0.909265 -1.237437 1.237437 
C -0.909265 1.565609 -0.464105 1.75 0 1.75 
z
" style="stroke: #0072b2"/>
    </defs>
    <g clip-path="url(#p9d33147d2a)">
     <use xlink:href="#m7ca0386083" x="250.030756" y="162.863994" style="fill: #0072b2; stroke: #0072b2"/>
     <use xlink:href="#m7ca0386083" x="283.41265" y="142.446981" style="fill: #0072b2; stroke: #0072b2"/>
     <use xlink:href="#m7ca0386083" x="316.794544" y="24.619487" style="fill: #0072b2; stroke: #0072b2"/>
     <use xlink:href="#m7ca0386083" x="350.176439" y="125.992401" style="fill: #0072b2; stroke: #0072b2"/>
    </g>
   </g>
   <g id="line2d_39">
    <path d="M 250.030756 129.168877 
L 283.41265 141.703707 
L 316.794544 174.090656 
L 350.176439 178.457518 
" clip-path="url(#p9d33147d2a)" style="fill: none; stroke: #e69f00; stroke-width: 1.2; stroke-linecap: square"/>
    <defs>
     <path id="m5fa97d973e" d="M 0 1.75 
C 0.464105 1.75 0.909265 1.565609 1.237437 1.237437 
C 1.565609 0.909265 1.75 0.464105 1.75 0 
C 1.75 -0.464105 1.565609 -0.909265 1.237437 -1.237437 
C 0.909265 -1.565609 0.464105 -1.75 0 -1.75 
C -0.464105 -1.75 -0.909265 -1.565609 -1.237437 -1.237437 
C -1.565609 -0.909265 -1.75 -0.464105 -1.75 0 
C -1.75 0.464105 -1.565609 0.909265 -1.237437 1.237437 
C -0.909265 1.565609 -0.464105 1.75 0 1.75 
z
" style="stroke: #e69f00"/>
    </defs>
    <g clip-path="url(#p9d33147d2a)">
     <use xlink:href="#m5fa97d973e" x="250.030756" y="129.168877" style="fill: #e69f00; stroke: #e69f00"/>
     <use xlink:href="#m5fa97d973e" x="283.41265" y="141.703707" style="fill: #e69f00; stroke: #e69f00"/>
     <use xlink:href="#m5fa97d973e" x="316.794544" y="174.090656" style="fill: #e69f00; stroke: #e69f00"/>
     <use xlink:href="#m5fa97d973e" x="350.176439" y="178.457518" style="fill: #e69f00; stroke: #e69f00"/>
    </g>
   </g>
   <g id="line2d_40">
    <path d="M 250.030756 177.481827 
L 283.41265 195.213321 
L 316.794544 145.811524 
L 350.176439 178.865052 
" clip-path="url(#p9d33147d2a)" style="fill: none; stroke: #009e73; stroke-width: 1.2; stroke-linecap: square"/>
    <defs>
     <path id="m0c373f55ca" d="M 0 1.75 
C 0.464105 1.75 0.909265 1.565609 1.237437 1.237437 
C 1.565609 0.909265 1.75 0.464105 1.75 0 
C 1.75 -0.464105 1.565609 -0.909265 1.237437 -1.237437 
C 0.909265 -1.565609 0.464105 -1.75 0 -1.75 
C -0.464105 -1.75 -0.909265 -1.565609 -1.237437 -1.237437 
C -1.565609 -0.909265 -1.75 -0.464105 -1.75 0 
C -1.75 0.464105 -1.565609 0.909265 -1.237437 1.237437 
C -0.909265 1.565609 -0.464105 1.75 0 1.75 
z
" style="stroke: #009e73"/>
    </defs>
    <g clip-path="url(#p9d33147d2a)">
     <use xlink:href="#m0c373f55ca" x="250.030756" y="177.481827" style="fill: #009e73; stroke: #009e73"/>
     <use xlink:href="#m0c373f55ca" x="283.41265" y="195.213321" style="fill: #009e73; stroke: #009e73"/>
     <use xlink:href="#m0c373f55ca" x="316.794544" y="145.811524" style="fill: #009e73; stroke: #009e73"/>
     <use xlink:href="#m0c373f55ca" x="350.176439" y="178.865052" style="fill: #009e73; stroke: #009e73"/>
    </g>
   </g>
   <g id="line2d_41">
    <path d="M 250.030756 205.970045 
L 283.41265 161.0173 
L 316.794544 124.144137 
L 350.176439 171.428246 
" clip-path="url(#p9d33147d2a)" style="fill: none; stroke: #d55e00; stroke-width: 1.2; stroke-linecap: square"/>
    <defs>
     <path id="m96c4e5dff4" d="M 0 1.75 
C 0.464105 1.75 0.909265 1.565609 1.237437 1.237437 
C 1.565609 0.909265 1.75 0.464105 1.75 0 
C 1.75 -0.464105 1.565609 -0.909265 1.237437 -1.237437 
C 0.909265 -1.565609 0.464105 -1.75 0 -1.75 
C -0.464105 -1.75 -0.909265 -1.565609 -1.237437 -1.237437 
C -1.565609 -0.909265 -1.75 -0.464105 -1.75 0 
C -1.75 0.464105 -1.565609 0.909265 -1.237437 1.237437 
C -0.909265 1.565609 -0.464105 1.75 0 1.75 
z
" style="stroke: #d55e00"/>
    </defs>
    <g clip-path="url(#p9d33147d2a)">
     <use xlink:href="#m96c4e5dff4" x="250.030756" y="205.970045" style="fill: #d55e00; stroke: #d55e00"/>
     <use xlink:href="#m96c4e5dff4" x="283.41265" y="161.0173" style="fill: #d55e00; stroke: #d55e00"/>
     <use xlink:href="#m96c4e5dff4" x="316.794544" y="124.144137" style="fill: #d55e00; stroke: #d55e00"/>
     <use xlink:href="#m96c4e5dff4" x="350.176439" y="171.428246" style="fill: #d55e00; stroke: #d55e00"/>
    </g>
   </g>
   <g id="line2d_42">
    <path d="M 250.030756 138.11727 
L 283.41265 192.761546 
L 316.794544 140.058631 
L 350.176439 154.805805 
" clip-path="url(#p9d33147d2a)" style="fill: none; stroke: #cc79a7; stroke-width: 1.2; stroke-linecap: square"/>
    <defs>
     <path id="m8a45747538" d="M 0 1.75 
C 0.464105 1.75 0.909265 1.565609 1.237437 1.237437 
C 1.565609 0.909265 1.75 0.464105 1.75 0 
C 1.75 -0.464105 1.565609 -0.909265 1.237437 -1.237437 
C 0.909265 -1.565609 0.464105 -1.75 0 -1.75 
C -0.464105 -1.75 -0.909265 -1.565609 -1.237437 -1.237437 
C -1.565609 -0.909265 -1.75 -0.464105 -1.75 0 
C -1.75 0.464105 -1.565609 0.909265 -1.237437 1.237437 
C -0.909265 1.565609 -0.464105 1.75 0 1.75 
z
" style="stroke: #cc79a7"/>
    </defs>
    <g clip-path="url(#p9d33147d2a)">
     <use xlink:href="#m8a45747538" x="250.030756" y="138.11727" style="fill: #cc79a7; stroke: #cc79a7"/>
     <use xlink:href="#m8a45747538" x="283.41265" y="192.761546" style="fill: #cc79a7; stroke: #cc79a7"/>
     <use xlink:href="#m8a45747538" x="316.794544" y="140.058631" style="fill: #cc79a7; stroke: #cc79a7"/>
     <use xlink:href="#m8a45747538" x="350.176439" y="154.805805" style="fill: #cc79a7; stroke: #cc79a7"/>
    </g>
   </g>
   <g id="patch_38">
    <path d="M 245.023471 215.037572 
L 245.023471 15.551959 
" style="fill: none; stroke: #000000; stroke-width: 0.8; stroke-linejoin: miter; stroke-linecap: square"/>
   </g>
   <g id="patch_39">
    <path d="M 355.183723 215.037572 
L 355.183723 15.551959 
" style="fill: none; stroke: #000000; stroke-width: 0.8; stroke-linejoin: miter; stroke-linecap: square"/>
   </g>
   <g id="patch_40">
    <path d="M 245.023471 215.037572 
L 355.183723 215.037572 
" style="fill: none; stroke: #000000; stroke-width: 0.8; stroke-linejoin: miter; stroke-linecap: square"/>
   </g>
   <g id="patch_41">
    <path d="M 245.023471 15.551959 
L 355.183723 15.551959 
" style="fill: none; stroke: #000000; stroke-width: 0.8; stroke-linejoin: miter; stroke-linecap: square"/>
   </g>
   <g id="text_34">
    <text style="font-size: 9px; font-family: 'Arial', 'DejaVu Sans', sans-serif; text-anchor: start" x="245.023471" y="9.551959" transform="rotate(-0 245.023471 9.551959)">B  Convergence</text>
   </g>
   <g id="legend_2">
    <g id="line2d_43">
     <path d="M 257.611535 23.146646 
L 263.611535 23.146646 
L 269.611535 23.146646 
" style="fill: none; stroke: #0072b2; stroke-width: 1.2; stroke-linecap: square"/>
     <g>
      <use xlink:href="#m7ca0386083" x="263.611535" y="23.146646" style="fill: #0072b2; stroke: #0072b2"/>
     </g>
    </g>
    <g id="text_35">
     <text style="font-size: 6px; font-family: 'Arial', 'DejaVu Sans', sans-serif; text-anchor: start" x="274.411535" y="25.246646" transform="rotate(-0 274.411535 25.246646)">interneuron dissociation rate</text>
    </g>
    <g id="line2d_44">
     <path d="M 257.611535 31.633834 
L 263.611535 31.633834 
L 269.611535 31.633834 
" style="fill: none; stroke: #e69f00; stroke-width: 1.2; stroke-linecap: square"/>
     <g>
      <use xlink:href="#m5fa97d973e" x="263.611535" y="31.633834" style="fill: #e69f00; stroke: #e69f00"/>
     </g>
    </g>
    <g id="text_36">
     <text style="font-size: 6px; font-family: 'Arial', 'DejaVu Sans', sans-serif; text-anchor: start" x="274.411535" y="33.733834" transform="rotate(-0 274.411535 33.733834)">interneuron toxic threshold</text>
    </g>
    <g id="line2d_45">
     <path d="M 257.611535 40.121021 
L 263.611535 40.121021 
L 269.611535 40.121021 
" style="fill: none; stroke: #009e73; stroke-width: 1.2; stroke-linecap: square"/>
     <g>
      <use xlink:href="#m0c373f55ca" x="263.611535" y="40.121021" style="fill: #009e73; stroke: #009e73"/>
     </g>
    </g>
    <g id="text_37">
     <text style="font-size: 6px; font-family: 'Arial', 'DejaVu Sans', sans-serif; text-anchor: start" x="274.411535" y="42.221021" transform="rotate(-0 274.411535 42.221021)">blood-brain influx clearance</text>
    </g>
    <g id="line2d_46">
     <path d="M 257.611535 48.608209 
L 263.611535 48.608209 
L 269.611535 48.608209 
" style="fill: none; stroke: #d55e00; stroke-width: 1.2; stroke-linecap: square"/>
     <g>
      <use xlink:href="#m96c4e5dff4" x="263.611535" y="48.608209" style="fill: #d55e00; stroke: #d55e00"/>
     </g>
    </g>
    <g id="text_38">
     <text style="font-size: 6px; font-family: 'Arial', 'DejaVu Sans', sans-serif; text-anchor: start" x="274.411535" y="50.708209" transform="rotate(-0 274.411535 50.708209)">NRHypo gain</text>
    </g>
    <g id="line2d_47">
     <path d="M 257.611535 57.165709 
L 263.611535 57.165709 
L 269.611535 57.165709 
" style="fill: none; stroke: #cc79a7; stroke-width: 1.2; stroke-linecap: square"/>
     <g>
      <use xlink:href="#m8a45747538" x="263.611535" y="57.165709" style="fill: #cc79a7; stroke: #cc79a7"/>
     </g>
    </g>
    <g id="text_39">
     <text style="font-size: 6px; font-family: 'Arial', 'DejaVu Sans', sans-serif; text-anchor: start" x="274.411535" y="59.265709" transform="rotate(-0 274.411535 59.265709)">blood-brain efflux clearance</text>
    </g>
   </g>
  </g>
  <g id="axes_3">
   <g id="patch_42">
    <path d="M 432.445058 215.037572 
L 542.60531 215.037572 
L 542.60531 15.551959 
L 432.445058 15.551959 
z
" style="fill: #ffffff"/>
   </g>
   <g id="patch_43">
    <path d="M 432.445058 205.970045 
L 478.582441 205.970045 
L 478.582441 187.369987 
L 432.445058 187.369987 
z
" clip-path="url(#p29ce06d4a6)" style="fill: #009e73; stroke: #000000; stroke-width: 0.4; stroke-linejoin: miter"/>
   </g>
   <g id="patch_44">
    <path d="M 432.445058 182.719973 
L 478.975859 182.719973 
L 478.975859 164.119916 
L 432.445058 164.119916 
z
" clip-path="url(#p29ce06d4a6)" style="fill: #009e73; stroke: #000000; stroke-width: 0.4; stroke-linejoin: miter"/>
   </g>
   <g id="patch_45">
    <path d="M 432.445058 159.469902 
L 479.148695 159.469902 
L 479.148695 140.869844 
L 432.445058 140.869844 
z
" clip-path="url(#p29ce06d4a6)" style="fill: #009e73; stroke: #000000; stroke-width: 0.4; stroke-linejoin: miter"/>
   </g>
   <g id="patch_46">
    <path d="M 432.445058 136.21983 
L 479.259657 136.21983 
L 479.259657 117.619773 
L 432.445058 117.619773 
z
" clip-path="url(#p29ce06d4a6)" style="fill: #009e73; stroke: #000000; stroke-width: 0.4; stroke-linejoin: miter"/>
   </g>
   <g id="patch_47">
    <path d="M 432.445058 112.969758 
L 479.391019 112.969758 
L 479.391019 94.369701 
L 432.445058 94.369701 
z
" clip-path="url(#p29ce06d4a6)" style="fill: #009e73; stroke: #000000; stroke-width: 0.4; stroke-linejoin: miter"/>
   </g>
   <g id="patch_48">
    <path d="M 432.445058 89.719687 
L 479.398544 89.719687 
L 479.398544 71.11963 
L 432.445058 71.11963 
z
" clip-path="url(#p29ce06d4a6)" style="fill: #009e73; stroke: #000000; stroke-width: 0.4; stroke-linejoin: miter"/>
   </g>
   <g id="patch_49">
    <path d="M 432.445058 66.469615 
L 508.397104 66.469615 
L 508.397104 47.869558 
L 432.445058 47.869558 
z
" clip-path="url(#p29ce06d4a6)" style="fill: #009e73; stroke: #000000; stroke-width: 0.4; stroke-linejoin: miter"/>
   </g>
   <g id="patch_50">
    <path d="M 432.445058 43.219544 
L 537.359584 43.219544 
L 537.359584 24.619487 
L 432.445058 24.619487 
z
" clip-path="url(#p29ce06d4a6)" style="fill: #009e73; stroke: #000000; stroke-width: 0.4; stroke-linejoin: miter"/>
   </g>
   <g id="matplotlib.axis_5">
    <g id="xtick_8">
     <g id="line2d_48">
      <g>
       <use xlink:href="#m136801912d" x="432.445058" y="215.037572" style="stroke: #000000; stroke-width: 0.8"/>
      </g>
     </g>
     <g id="text_40">
      <text style="font-size: 8px; font-family: 'Arial', 'DejaVu Sans', sans-serif; text-anchor: middle" x="432.445058" y="227.763822" transform="rotate(-0 432.445058 227.763822)">0.0</text>
     </g>
    </g>
    <g id="xtick_9">
     <g id="line2d_49">
      <g>
       <use xlink:href="#m136801912d" x="485.542403" y="215.037572" style="stroke: #000000; stroke-width: 0.8"/>
      </g>
     </g>
     <g id="text_41">
      <text style="font-size: 8px; font-family: 'Arial', 'DejaVu Sans', sans-serif; text-anchor: middle" x="485.542403" y="227.763822" transform="rotate(-0 485.542403 227.763822)">0.2</text>
     </g>
    </g>
    <g id="xtick_10">
     <g id="line2d_50">
      <g>
       <use xlink:href="#m136801912d" x="538.639748" y="215.037572" style="stroke: #000000; stroke-width: 0.8"/>
      </g>
     </g>
     <g id="text_42">
      <text style="font-size: 8px; font-family: 'Arial', 'DejaVu Sans', sans-serif; text-anchor: middle" x="538.639748" y="227.763822" transform="rotate(-0 538.639748 227.763822)">0.4</text>
     </g>
    </g>
    <g id="text_43">
     <text style="font-size: 9px; font-family: 'Arial', 'DejaVu Sans', sans-serif; text-anchor: middle" x="487.525184" y="239.905541" transform="rotate(-0 487.525184 239.905541)">|Second-order index|</text>
    </g>
   </g>
   <g id="matplotlib.axis_6">
    <g id="ytick_21">
     <g id="line2d_51">
      <g>
       <use xlink:href="#md9b3645eca" x="432.445058" y="196.670016" style="stroke: #000000; stroke-width: 0.8"/>
      </g>
     </g>
     <g id="text_44">
      <text style="font-size: 6px; font-family: 'Arial', 'DejaVu Sans', sans-serif; text-anchor: end" x="425.445058" y="198.81736" transform="rotate(-0 425.445058 198.81736)">g_gain x kappa</text>
     </g>
    </g>
    <g id="ytick_22">
     <g id="line2d_52">
      <g>
       <use xlink:href="#md9b3645eca" x="432.445058" y="173.419944" style="stroke: #000000; stroke-width: 0.8"/>
      </g>
     </g>
     <g id="text_45">
      <text style="font-size: 6px; font-family: 'Arial', 'DejaVu Sans', sans-serif; text-anchor: end" x="425.445058" y="175.603851" transform="rotate(-0 425.445058 175.603851)">CL_out_S x k_off_int</text>
     </g>
    </g>
    <g id="ytick_23">
     <g id="line2d_53">
      <g>
       <use xlink:href="#md9b3645eca" x="432.445058" y="150.169873" style="stroke: #000000; stroke-width: 0.8"/>
      </g>
     </g>
     <g id="text_46">
      <text style="font-size: 6px; font-family: 'Arial', 'DejaVu Sans', sans-serif; text-anchor: end" x="425.445058" y="152.353779" transform="rotate(-0 425.445058 152.353779)">k_off_int x alpha</text>
     </g>
    </g>
    <g id="ytick_24">
     <g id="line2d_54">
      <g>
       <use xlink:href="#md9b3645eca" x="432.445058" y="126.919801" style="stroke: #000000; stroke-width: 0.8"/>
      </g>
     </g>
     <g id="text_47">
      <text style="font-size: 6px; font-family: 'Arial', 'DejaVu Sans', sans-serif; text-anchor: end" x="425.445058" y="129.067145" transform="rotate(-0 425.445058 129.067145)">g_gain x alpha</text>
     </g>
    </g>
    <g id="ytick_25">
     <g id="line2d_55">
      <g>
       <use xlink:href="#md9b3645eca" x="432.445058" y="103.66973" style="stroke: #000000; stroke-width: 0.8"/>
      </g>
     </g>
     <g id="text_48">
      <text style="font-size: 6px; font-family: 'Arial', 'DejaVu Sans', sans-serif; text-anchor: end" x="425.445058" y="105.853636" transform="rotate(-0 425.445058 105.853636)">k_off_int x beta</text>
     </g>
    </g>
    <g id="ytick_26">
     <g id="line2d_56">
      <g>
       <use xlink:href="#md9b3645eca" x="432.445058" y="80.419658" style="stroke: #000000; stroke-width: 0.8"/>
      </g>
     </g>
     <g id="text_49">
      <text style="font-size: 6px; font-family: 'Arial', 'DejaVu Sans', sans-serif; text-anchor: end" x="425.445058" y="82.603565" transform="rotate(-0 425.445058 82.603565)">k_off_int x kappa</text>
     </g>
    </g>
    <g id="ytick_27">
     <g id="line2d_57">
      <g>
       <use xlink:href="#md9b3645eca" x="432.445058" y="57.169587" style="stroke: #000000; stroke-width: 0.8"/>
      </g>
     </g>
     <g id="text_50">
      <text style="font-size: 6px; font-family: 'Arial', 'DejaVu Sans', sans-serif; text-anchor: end" x="425.445058" y="59.316931" transform="rotate(-0 425.445058 59.316931)">g_gain x gamma</text>
     </g>
    </g>
    <g id="ytick_28">
     <g id="line2d_58">
      <g>
       <use xlink:href="#md9b3645eca" x="432.445058" y="33.919515" style="stroke: #000000; stroke-width: 0.8"/>
      </g>
     </g>
     <g id="text_51">
      <text style="font-size: 6px; font-family: 'Arial', 'DejaVu Sans', sans-serif; text-anchor: end" x="425.445058" y="36.103422" transform="rotate(-0 425.445058 36.103422)">k_off_int x B_int_thresh</text>
     </g>
    </g>
   </g>
   <g id="patch_51">
    <path d="M 432.445058 215.037573 
L 432.445058 15.551959 
" style="fill: none; stroke: #000000; stroke-width: 0.8; stroke-linejoin: miter; stroke-linecap: square"/>
   </g>
   <g id="patch_52">
    <path d="M 542.60531 215.037573 
L 542.60531 15.551959 
" style="fill: none; stroke: #000000; stroke-width: 0.8; stroke-linejoin: miter; stroke-linecap: square"/>
   </g>
   <g id="patch_53">
    <path d="M 432.445058 215.037572 
L 542.60531 215.037572 
" style="fill: none; stroke: #000000; stroke-width: 0.8; stroke-linejoin: miter; stroke-linecap: square"/>
   </g>
   <g id="patch_54">
    <path d="M 432.445058 15.551959 
L 542.60531 15.551959 
" style="fill: none; stroke: #000000; stroke-width: 0.8; stroke-linejoin: miter; stroke-linecap: square"/>
   </g>
   <g id="text_52">
    <text style="font-size: 9px; font-family: 'Arial', 'DejaVu Sans', sans-serif; text-anchor: start" x="432.445058" y="9.551959" transform="rotate(-0 432.445058 9.551959)">C  Strongest interactions</text>
   </g>
  </g>
 </g>
 <defs>
  <clipPath id="p6c1ed21dde">
   <rect x="98.511959" y="15.551959" width="110.160251" height="199.485614"/>
  </clipPath>
  <clipPath id="p9d33147d2a">
   <rect x="245.023471" y="15.551959" width="110.160251" height="199.485614"/>
  </clipPath>
  <clipPath id="p29ce06d4a6">
   <rect x="432.445058" y="15.551959" width="110.160251" height="199.485614"/>
  </clipPath>
 </defs>
</svg>
